<svg width="305" height="950" viewBox="0 0 305 950" fill="none" xmlns="http://www.w3.org/2000/svg">
<g filter="url(#filter0_d)">
<path d="M-468.137 552.511C-433.974 634.137 -336.686 653.664 -290.931 662.13C-276.204 670.825 -275.812 667.837 -253.53 683.112C-225.677 702.206 -231.605 737.985 -198.334 777.868C-165.063 817.751 -98.0632 781.119 -76.498 744.611C-54.9329 708.104 -35.671 712.449 10.3681 717.957C56.4072 723.464 87.1296 776.206 165.906 692.006C244.683 607.806 195.194 521.698 143.787 483.999C102.662 453.839 87.6013 423.542 85.2116 412.163C96.0523 368.734 100.464 258.891 31.3839 166.954C-23.1035 94.4383 -64.5941 64.2269 -187.4 85.478C-310.206 106.729 -306.638 208.212 -298.112 261.911C-289.586 315.61 -337.808 329.332 -403.28 352.504C-468.752 375.676 -510.841 450.478 -468.137 552.511Z" fill="#B8C1FD"/>
</g>
<defs>
<filter id="filter0_d" x="-611" y="4.57764e-05" width="915.336" height="949.322" filterUnits="userSpaceOnUse" color-interpolation-filters="sRGB">
<feFlood flood-opacity="0" result="BackgroundImageFix"/>
<feColorMatrix in="SourceAlpha" type="matrix" values="0 0 0 0 0 0 0 0 0 0 0 0 0 0 0 0 0 0 127 0"/>
<feOffset dy="4"/>
<feGaussianBlur stdDeviation="2"/>
<feColorMatrix type="matrix" values="0 0 0 0 0 0 0 0 0 0 0 0 0 0 0 0 0 0 0.25 0"/>
<feBlend mode="normal" in2="BackgroundImageFix" result="effect1_dropShadow"/>
<feBlend mode="normal" in="SourceGraphic" in2="effect1_dropShadow" result="shape"/>
</filter>
</defs>
</svg>
