<svg width="62" height="63" viewBox="0 0 62 63" fill="none" xmlns="http://www.w3.org/2000/svg">
<g filter="url(#filter0_d)">
<g filter="url(#filter1_d)">
<path d="M57.8623 45.169C60.7026 38.7621 56.5344 32.0996 54.5328 29.0051C54.2322 27.6844 54.0389 27.8244 53.7061 25.7108C53.2901 23.0687 55.6722 21.4637 56.1582 17.3789C56.6442 13.2941 50.8908 11.4301 47.6162 12.1746C44.3416 12.9191 43.5439 11.5739 41.3565 8.6241C39.1691 5.67427 40.5339 1.03672 31.4017 1.08224C22.2695 1.12776 20.0049 8.66066 20.6311 13.6706C21.1321 17.6786 20.2073 20.1937 19.6823 20.9502C16.5925 22.6886 10.0295 28.4099 8.49498 37.3876C7.28461 44.4689 7.80249 48.5007 15.7062 54.414C23.6099 60.3273 29.2576 54.6014 31.885 51.1895C34.5123 47.7777 37.9254 49.8071 42.8208 52.3154C47.7162 54.8238 54.3118 53.1776 57.8623 45.169Z" fill="#E69887"/>
</g>
<g filter="url(#filter2_d)">
<path fill-rule="evenodd" clip-rule="evenodd" d="M23.0157 10.8224C25.4191 8.02861 30.6338 2.14893 37.582 3.06493C46.2672 4.20993 49.7085 10.0724 48.6843 15.4768C48.6294 15.7664 48.5746 16.0516 48.5207 16.3322C47.5691 21.287 46.892 24.8119 50.6917 26.2856C54.7066 27.8428 61.794 31.6443 58.3527 40.8959C54.9114 50.1475 51.1898 51.7826 44.0549 52.6207C35.0092 53.6833 27.6678 49.0025 25.1278 46.5293C24.2538 46.2393 21.5799 46.0622 17.8764 47.6743C13.2471 49.6895 5.38125 49.6437 2.7593 40.8959C0.804942 34.3754 2.99323 32.7152 5.15044 31.0785C5.88731 30.5195 6.62056 29.9632 7.18383 29.2168C7.29131 29.0744 7.39607 28.9363 7.49795 28.8019C9.49322 26.1702 10.3817 24.9982 8.82259 22.2094C7.18383 19.2782 7.34775 13.2326 11.4036 12.5456C13.3684 12.2128 14.9006 12.4711 16.233 12.6958C17.6509 12.9349 18.8426 13.1359 20.0888 12.5456C21.2814 11.9806 21.6666 11.7086 22.064 11.4279C22.311 11.2535 22.5627 11.0758 23.0157 10.8224ZM14.1251 20.599C16.4568 20.599 16.9232 19.3054 16.9232 18.1721C16.9232 17.0389 15.3098 15.5624 14.1251 15.5624C12.9403 15.5624 11.6068 16.2135 11.6068 18.1721C11.6068 19.3054 12.9403 20.599 14.1251 20.599Z" fill="#E1E1F5"/>
</g>
<g filter="url(#filter3_d)">
<path fill-rule="evenodd" clip-rule="evenodd" d="M43.5614 52.6703C43.7151 52.6554 43.8694 52.6389 44.0242 52.6207C51.1591 51.7826 54.8807 50.1475 58.322 40.8959C58.491 40.4416 58.6346 40.0003 58.7545 39.5719C58.4171 35.1667 55.9178 31.1935 54.5023 29.005C54.4038 28.5726 54.3169 28.2967 54.2328 28.0471C52.9949 27.2642 51.7209 26.6967 50.661 26.2856C46.8613 24.8119 47.5384 21.287 48.4901 16.3322C48.5439 16.0516 48.5987 15.7664 48.6536 15.4768C48.8708 14.3305 48.8872 13.1636 48.6952 12.0255C48.3046 12.0464 47.9313 12.0959 47.5856 12.1745C44.4701 12.8829 43.5966 11.6996 41.6353 9.04251C41.5352 8.90684 41.4322 8.76732 41.3259 8.62402C40.769 7.87295 40.4423 7.01247 40.1141 6.14774C39.7235 5.11895 39.3307 4.08413 38.545 3.22038C38.2218 3.16157 37.8905 3.10965 37.5513 3.06493C30.6032 2.14893 25.3884 8.02861 22.985 10.8224C22.532 11.0758 22.2803 11.2535 22.0334 11.4279C21.6905 11.6701 21.3567 11.9058 20.5056 12.3287C20.5142 12.7904 20.5467 13.2398 20.6005 13.6706C21.1015 17.6786 20.1767 20.1936 19.6517 20.9501C16.562 22.6886 9.99892 28.4098 8.4644 37.3875C7.70361 41.8385 7.62563 45.0847 9.63545 48.3507C12.4803 49.1627 15.5582 48.6701 17.8458 47.6743C21.5493 46.0622 24.2231 46.2393 25.0971 46.5293C26.3641 47.763 28.8258 49.546 32.0978 50.8914C34.5486 48.0675 37.6763 49.6798 42.0159 51.9169C42.2698 52.0479 42.5279 52.1809 42.7903 52.3153C43.043 52.4448 43.3002 52.5633 43.5614 52.6703Z" fill="#FFD2D6" fill-opacity="0.8"/>
</g>
<g filter="url(#filter4_i)">
<path d="M35.6281 18.6489C30.3565 17.8739 25.4499 20.7643 23.3865 25.3377L23.3559 25.3253L13.339 50.2901L14.4413 50.7323C16.3688 51.5052 18.5585 50.5699 19.3314 48.6424L24.2382 36.4126C26.0568 39.2028 29.0591 41.1904 32.6258 41.5968C39.157 42.3409 45.0371 37.4943 45.485 30.8618C45.8908 24.8792 41.5614 19.5188 35.6281 18.6489ZM33.0874 37.5613C28.9657 37.0918 26.0045 33.3691 26.4741 29.2474C26.9437 25.1257 30.6664 22.1645 34.7881 22.6341C38.9098 23.1037 41.871 26.8264 41.4014 30.9481C40.9318 35.0697 37.2091 38.0309 33.0874 37.5613Z" fill="white"/>
</g>
</g>
<defs>
<filter id="filter0_d" x="0" y="0.0819092" width="61.2677" height="59.8917" filterUnits="userSpaceOnUse" color-interpolation-filters="sRGB">
<feFlood flood-opacity="0" result="BackgroundImageFix"/>
<feColorMatrix in="SourceAlpha" type="matrix" values="0 0 0 0 0 0 0 0 0 0 0 0 0 0 0 0 0 0 127 0"/>
<feOffset dy="1"/>
<feGaussianBlur stdDeviation="1"/>
<feColorMatrix type="matrix" values="0 0 0 0 0 0 0 0 0 0 0 0 0 0 0 0 0 0 0.25 0"/>
<feBlend mode="normal" in2="BackgroundImageFix" result="effect1_dropShadow"/>
<feBlend mode="normal" in="SourceGraphic" in2="effect1_dropShadow" result="shape"/>
</filter>
<filter id="filter1_d" x="5.99963" y="1.08191" width="54.8235" height="61.8917" filterUnits="userSpaceOnUse" color-interpolation-filters="sRGB">
<feFlood flood-opacity="0" result="BackgroundImageFix"/>
<feColorMatrix in="SourceAlpha" type="matrix" values="0 0 0 0 0 0 0 0 0 0 0 0 0 0 0 0 0 0 127 0"/>
<feOffset dy="4"/>
<feGaussianBlur stdDeviation="1"/>
<feColorMatrix type="matrix" values="0 0 0 0 0 0 0 0 0 0 0 0 0 0 0 0 0 0 0.25 0"/>
<feBlend mode="normal" in2="BackgroundImageFix" result="effect1_dropShadow"/>
<feBlend mode="normal" in="SourceGraphic" in2="effect1_dropShadow" result="shape"/>
</filter>
<filter id="filter2_d" x="0" y="2.96906" width="61.2677" height="55.8061" filterUnits="userSpaceOnUse" color-interpolation-filters="sRGB">
<feFlood flood-opacity="0" result="BackgroundImageFix"/>
<feColorMatrix in="SourceAlpha" type="matrix" values="0 0 0 0 0 0 0 0 0 0 0 0 0 0 0 0 0 0 127 0"/>
<feOffset dy="4"/>
<feGaussianBlur stdDeviation="1"/>
<feColorMatrix type="matrix" values="0 0 0 0 0 0 0 0 0 0 0 0 0 0 0 0 0 0 0.25 0"/>
<feBlend mode="normal" in2="BackgroundImageFix" result="effect1_dropShadow"/>
<feBlend mode="normal" in="SourceGraphic" in2="effect1_dropShadow" result="shape"/>
</filter>
<filter id="filter3_d" x="5.96906" y="2.96906" width="54.7854" height="55.7012" filterUnits="userSpaceOnUse" color-interpolation-filters="sRGB">
<feFlood flood-opacity="0" result="BackgroundImageFix"/>
<feColorMatrix in="SourceAlpha" type="matrix" values="0 0 0 0 0 0 0 0 0 0 0 0 0 0 0 0 0 0 127 0"/>
<feOffset dy="4"/>
<feGaussianBlur stdDeviation="1"/>
<feColorMatrix type="matrix" values="0 0 0 0 0 0 0 0 0 0 0 0 0 0 0 0 0 0 0.25 0"/>
<feBlend mode="normal" in2="BackgroundImageFix" result="effect1_dropShadow"/>
<feBlend mode="normal" in="SourceGraphic" in2="effect1_dropShadow" result="shape"/>
</filter>
<filter id="filter4_i" x="13.3389" y="18.5236" width="32.1724" height="33.48" filterUnits="userSpaceOnUse" color-interpolation-filters="sRGB">
<feFlood flood-opacity="0" result="BackgroundImageFix"/>
<feBlend mode="normal" in="SourceGraphic" in2="BackgroundImageFix" result="shape"/>
<feColorMatrix in="SourceAlpha" type="matrix" values="0 0 0 0 0 0 0 0 0 0 0 0 0 0 0 0 0 0 127 0" result="hardAlpha"/>
<feOffset dy="1"/>
<feGaussianBlur stdDeviation="1.5"/>
<feComposite in2="hardAlpha" operator="arithmetic" k2="-1" k3="1"/>
<feColorMatrix type="matrix" values="0 0 0 0 0 0 0 0 0 0 0 0 0 0 0 0 0 0 0.5 0"/>
<feBlend mode="normal" in2="shape" result="effect1_innerShadow"/>
</filter>
</defs>
</svg>
