<svg width="761" height="676" viewBox="0 0 761 676" fill="none" xmlns="http://www.w3.org/2000/svg">
<path opacity="0.1" d="M340.926 261.157C311.183 251.521 279.736 243.443 247.598 244.275C200.349 245.503 154.921 267.545 132.515 300.121C113.576 327.727 111.048 360.171 102.781 390.868C92.5949 428.687 73.2607 464.577 52.6255 499.675C41.5421 518.527 29.8493 537.774 27.9225 558.489C25.2793 587.248 42.6867 616 70.1317 635.272C97.5767 654.544 134.096 664.815 170.788 667.213C190.312 668.483 210.716 667.502 228.099 660.462C246.486 653.044 259.933 639.468 278.394 632.131C295.505 625.339 315.449 624.465 334.643 625.463C359.501 626.722 384.12 630.944 407.978 638.042C434.731 646.054 459.591 657.586 486.286 665.713C512.982 673.841 542.823 678.44 570.178 671.904C595.861 665.771 616.232 650.653 634.603 635.338C664.207 610.72 691.735 583.702 716.905 554.557C733.497 535.277 748.953 514.916 756.364 492.388C770.519 449.311 751.555 400.537 709.124 370.871C673.971 346.282 626.682 335.426 580.372 328.832C538.138 322.756 489.275 322.155 450.459 306.683C413.437 291.887 379.759 273.736 340.926 261.157Z" fill="#E9B7BB"/>
<path opacity="0.1" d="M720.051 407.956C730.561 407.956 739.081 406.786 739.081 405.343C739.081 403.9 730.561 402.73 720.051 402.73C709.541 402.73 701.022 403.9 701.022 405.343C701.022 406.786 709.541 407.956 720.051 407.956Z" fill="#E9B7BB"/>
<path opacity="0.1" d="M647.152 415.358C657.662 415.358 666.181 414.188 666.181 412.745C666.181 411.302 657.662 410.132 647.152 410.132C636.642 410.132 628.122 411.302 628.122 412.745C628.122 414.188 636.642 415.358 647.152 415.358Z" fill="#E9B7BB"/>
<path opacity="0.1" d="M561.285 405.343C571.794 405.343 580.314 404.173 580.314 402.73C580.314 401.287 571.794 400.117 561.285 400.117C550.775 400.117 542.255 401.287 542.255 402.73C542.255 404.173 550.775 405.343 561.285 405.343Z" fill="#E9B7BB"/>
<path opacity="0.1" d="M676.327 435.677C683.798 435.677 689.856 434.843 689.856 433.814C689.856 432.785 683.798 431.951 676.327 431.951C668.855 431.951 662.798 432.785 662.798 433.814C662.798 434.843 668.855 435.677 676.327 435.677Z" fill="#E9B7BB"/>
<path opacity="0.1" d="M600.67 433.814C608.141 433.814 614.199 432.98 614.199 431.951C614.199 430.922 608.141 430.088 600.67 430.088C593.198 430.088 587.141 430.922 587.141 431.951C587.141 432.98 593.198 433.814 600.67 433.814Z" fill="#E9B7BB"/>
<path d="M646.74 412.151C646.74 412.151 673.436 324.562 642.565 289.479C619.509 263.234 593.258 266.399 581.524 269.622C578.487 270.431 575.662 271.892 573.244 273.903C570.827 275.915 568.876 278.428 567.526 281.269C563.409 290.131 564.166 304.515 593.135 321.306C641.643 349.422 644.665 387.991 644.665 387.991L646.74 412.151Z" fill="#E9B7BB"/>
<path d="M585.7 282.044C585.7 282.044 664.387 306.674 646.741 412.152" stroke="#565987" stroke-miterlimit="10"/>
<path d="M631.647 290.873C631.647 290.873 620.81 298.184 624.236 309.164" stroke="#565987" stroke-miterlimit="10"/>
<path d="M593.596 297.376C593.596 297.376 600.183 290.634 608.278 294.351" stroke="#565987" stroke-miterlimit="10"/>
<path d="M624.697 331.296C624.697 331.296 636.324 325.394 639.329 332.788" stroke="#565987" stroke-miterlimit="10"/>
<path d="M653.476 343.611C653.476 343.611 644.739 342.919 644.583 347.098" stroke="#565987" stroke-miterlimit="10"/>
<path d="M647.82 412.852C647.82 412.852 616.529 349.191 607.974 350.585C603.856 351.244 602.012 355.267 601.164 359.297C600.11 364.515 600.706 369.931 602.868 374.794C607.307 384.982 619.222 404.329 647.82 412.852Z" fill="#E9B7BB"/>
<path d="M608.204 362.669C608.204 362.669 641.018 410.296 647.358 412.39" stroke="#565987" stroke-miterlimit="10"/>
<path d="M605.19 370.104H612.848" stroke="#565987" stroke-miterlimit="10"/>
<path d="M614.363 387.53L626.369 388.041" stroke="#565987" stroke-miterlimit="10"/>
<path d="M621.667 373.591L620.366 379.847" stroke="#565987" stroke-miterlimit="10"/>
<path d="M634.43 392.64L634.2 398.328" stroke="#565987" stroke-miterlimit="10"/>
<path d="M646.898 412.852C646.898 412.852 678.188 349.191 686.743 350.585C690.861 351.244 692.705 355.267 693.553 359.297C694.607 364.515 694.011 369.931 691.849 374.794C687.41 384.982 675.495 404.329 646.898 412.852Z" fill="#E9B7BB"/>
<path d="M686.513 362.669C686.513 362.669 653.699 410.296 647.358 412.39" stroke="#565987" stroke-miterlimit="10"/>
<path d="M689.526 370.104H681.868" stroke="#565987" stroke-miterlimit="10"/>
<path d="M680.353 387.53L668.347 388.041" stroke="#565987" stroke-miterlimit="10"/>
<path d="M673.049 373.591L674.35 379.847" stroke="#565987" stroke-miterlimit="10"/>
<path d="M660.278 392.64L660.517 398.328" stroke="#565987" stroke-miterlimit="10"/>
<path d="M593.217 427.722C592.368 427.026 591.749 426.089 591.439 425.035C591.301 424.504 591.35 423.942 591.576 423.443C591.802 422.943 592.193 422.537 592.682 422.29C593.827 421.853 595.045 422.645 595.976 423.453C596.906 424.26 597.96 425.159 599.171 424.994C598.549 424.428 598.085 423.711 597.822 422.912C597.559 422.113 597.508 421.26 597.672 420.436C597.723 420.093 597.865 419.772 598.084 419.504C598.718 418.828 599.871 419.125 600.628 419.652C603.041 421.359 603.716 424.639 603.733 427.59C603.85 426.495 603.85 425.389 603.733 424.293C603.686 423.747 603.773 423.198 603.987 422.694C604.201 422.189 604.535 421.745 604.96 421.4C605.531 421.086 606.177 420.933 606.829 420.955C607.368 420.878 607.916 420.916 608.44 421.065C608.963 421.214 609.45 421.471 609.867 421.82C610.781 422.81 610.543 424.466 609.744 425.554C608.845 426.551 607.785 427.387 606.606 428.027C605.704 428.562 604.935 429.294 604.358 430.171C604.294 430.292 604.239 430.419 604.194 430.55H597.392C595.88 429.8 594.476 428.849 593.217 427.722Z" fill="#E9B7BB"/>
<path d="M712.343 402.079C711.491 401.385 710.87 400.448 710.565 399.391C710.428 398.862 710.476 398.301 710.703 397.803C710.929 397.305 711.319 396.9 711.808 396.655C712.953 396.218 714.171 397.009 715.102 397.809C716.032 398.608 717.094 399.523 718.305 399.35C717.68 398.786 717.213 398.07 716.949 397.27C716.685 396.471 716.633 395.617 716.798 394.792C716.848 394.45 716.993 394.13 717.218 393.869C717.852 393.193 718.997 393.481 719.754 394.017C722.167 395.715 722.842 398.963 722.858 401.955C722.98 400.859 722.98 399.753 722.858 398.658C722.811 398.112 722.899 397.563 723.112 397.058C723.326 396.554 723.66 396.11 724.085 395.764C724.66 395.459 725.304 395.308 725.955 395.328C726.49 395.243 727.038 395.273 727.562 395.415C728.085 395.557 728.573 395.808 728.993 396.152C729.915 397.133 729.676 398.79 728.869 399.878C727.977 400.893 726.915 401.747 725.732 402.4C724.83 402.934 724.061 403.667 723.484 404.543C723.417 404.664 723.361 404.791 723.32 404.922H716.518C715.006 404.165 713.602 403.208 712.343 402.079Z" fill="#E9B7BB"/>
<path d="M672.637 427.722C671.788 427.026 671.168 426.089 670.858 425.035C670.721 424.504 670.769 423.942 670.996 423.443C671.222 422.943 671.612 422.537 672.102 422.29C673.246 421.853 674.465 422.645 675.396 423.453C676.326 424.26 677.38 425.159 678.59 424.994C677.968 424.429 677.502 423.712 677.238 422.913C676.974 422.114 676.921 421.261 677.084 420.436C677.141 420.094 677.285 419.773 677.504 419.504C678.138 418.828 679.29 419.125 680.048 419.652C682.461 421.359 683.136 424.639 683.152 427.59C683.284 426.496 683.298 425.391 683.193 424.293C683.146 423.747 683.234 423.198 683.447 422.694C683.661 422.189 683.995 421.745 684.42 421.4C684.992 421.086 685.638 420.933 686.29 420.955C686.828 420.878 687.377 420.916 687.901 421.065C688.424 421.214 688.91 421.471 689.328 421.82C690.242 422.81 690.003 424.466 689.205 425.554C688.306 426.551 687.245 427.387 686.067 428.027C685.165 428.562 684.396 429.294 683.819 430.171C683.754 430.292 683.699 430.419 683.655 430.55H676.853C675.326 429.803 673.908 428.852 672.637 427.722Z" fill="#E9B7BB"/>
<path d="M560.049 375.891C560.049 375.891 557.497 379.229 561.227 384.266C564.957 389.302 568.02 393.564 566.785 396.704C566.785 396.704 561.161 387.348 556.583 387.217C552.005 387.085 555.01 381.521 560.049 375.891Z" fill="#E9B7BB"/>
<path opacity="0.1" d="M560.049 375.891C559.824 376.212 559.646 376.565 559.522 376.938C555.059 382.188 552.68 387.093 556.97 387.217C560.972 387.332 565.772 394.487 566.917 396.284C566.917 396.424 566.835 396.564 566.785 396.696C566.785 396.696 561.161 387.34 556.583 387.208C552.005 387.076 555.01 381.521 560.049 375.891Z" fill="black"/>
<path d="M555.307 380.144C555.307 381.323 555.438 382.271 555.603 382.271C555.768 382.271 555.891 381.323 555.891 380.144C555.891 378.965 555.726 379.526 555.57 379.526C555.414 379.526 555.307 378.973 555.307 380.144Z" fill="#FFD037"/>
<path d="M553.677 381.545C554.706 382.114 555.612 382.452 555.686 382.312C555.76 382.171 554.994 381.594 553.965 381.034C552.935 380.473 553.339 380.877 553.257 381.034C553.174 381.191 552.647 380.985 553.677 381.545Z" fill="#FFD037"/>
<path d="M573.513 375.891C573.513 375.891 576.065 379.229 572.335 384.266C568.605 389.302 565.542 393.564 566.785 396.704C566.785 396.704 572.401 387.348 576.979 387.217C581.558 387.085 578.552 381.521 573.513 375.891Z" fill="#E9B7BB"/>
<path opacity="0.1" d="M573.512 375.891C573.738 376.212 573.916 376.565 574.039 376.938C578.502 382.188 580.882 387.093 576.592 387.217C572.59 387.332 567.789 394.487 566.645 396.284C566.683 396.424 566.73 396.562 566.785 396.696C566.785 396.696 572.401 387.34 576.979 387.208C581.557 387.076 578.552 381.521 573.512 375.891Z" fill="black"/>
<path d="M578.256 380.144C578.256 381.323 578.124 382.271 577.96 382.271C577.795 382.271 577.672 381.323 577.672 380.144C577.672 378.965 577.836 379.526 577.993 379.526C578.149 379.526 578.256 378.973 578.256 380.144Z" fill="#FFD037"/>
<path d="M579.886 381.545C578.857 382.114 577.951 382.452 577.877 382.312C577.803 382.171 578.569 381.594 579.598 381.034C580.627 380.473 580.224 380.877 580.306 381.034C580.388 381.191 580.915 380.985 579.886 381.545Z" fill="#FFD037"/>
<path d="M577.441 396.267C577.441 396.267 570.318 396.053 568.169 394.52C566.02 392.986 557.201 391.156 556.641 393.613C556.081 396.069 545.936 405.829 553.973 405.895C562.01 405.961 572.681 404.642 574.822 403.331C576.963 402.021 577.441 396.267 577.441 396.267Z" fill="#A8A8A8"/>
<path opacity="0.2" d="M553.857 405.038C561.902 405.104 572.557 403.785 574.707 402.474C576.354 401.485 576.988 397.907 577.177 396.259H577.408C577.408 396.259 576.963 402.029 574.814 403.323C572.665 404.617 562.018 405.953 553.964 405.887C551.642 405.887 550.844 405.062 550.885 403.818C551.239 404.568 552.128 405.029 553.857 405.038Z" fill="black"/>
<path opacity="0.1" d="M106.214 67.7108C116.051 67.7108 124.025 59.7283 124.025 49.8813C124.025 40.0343 116.051 32.0518 106.214 32.0518C96.3778 32.0518 88.4036 40.0343 88.4036 49.8813C88.4036 59.7283 96.3778 67.7108 106.214 67.7108Z" fill="#E9B7BB"/>
<path opacity="0.1" d="M414.269 39.5691C424.105 39.5691 432.079 31.5866 432.079 21.7396C432.079 11.8926 424.105 3.91005 414.269 3.91005C404.432 3.91005 396.458 11.8926 396.458 21.7396C396.458 31.5866 404.432 39.5691 414.269 39.5691Z" fill="#E9B7BB"/>
<path opacity="0.1" d="M696.83 110.006C706.667 110.006 714.641 102.023 714.641 92.176C714.641 82.329 706.667 74.3465 696.83 74.3465C686.993 74.3465 679.019 82.329 679.019 92.176C679.019 102.023 686.993 110.006 696.83 110.006Z" fill="#E9B7BB"/>
<path opacity="0.1" d="M29.8494 243.245C46.3348 243.245 59.6989 229.867 59.6989 213.364C59.6989 196.861 46.3348 183.483 29.8494 183.483C13.364 183.483 0 196.861 0 213.364C0 229.867 13.364 243.245 29.8494 243.245Z" fill="#E9B7BB"/>
<path opacity="0.1" d="M58.4636 390.794C74.949 390.794 88.313 377.416 88.313 360.913C88.313 344.411 74.949 331.033 58.4636 331.033C41.9782 331.033 28.6142 344.411 28.6142 360.913C28.6142 377.416 41.9782 390.794 58.4636 390.794Z" fill="#E9B7BB"/>
<path opacity="0.1" d="M617.508 260.646C633.994 260.646 647.358 247.268 647.358 230.765C647.358 214.262 633.994 200.884 617.508 200.884C601.023 200.884 587.659 214.262 587.659 230.765C587.659 247.268 601.023 260.646 617.508 260.646Z" fill="#E9B7BB"/>
<path d="M370.676 286.718C369.622 286.817 368.552 286.768 367.506 286.932C365.75 287.282 364.075 287.956 362.565 288.919C355.072 293.189 347.999 299.058 344.894 307.103C344.639 307.597 344.558 308.164 344.664 308.71C344.848 309.161 345.149 309.554 345.537 309.848L348.452 312.502C348.82 312.885 349.259 313.193 349.745 313.409C350.531 313.615 351.36 313.589 352.132 313.335C360.144 311.496 368.659 309.378 374.283 303.377C376.951 300.533 379.413 296.618 383.341 296.511C384.987 296.511 386.527 297.145 388.149 297.335C389.772 297.525 391.723 296.832 392.11 295.25C392.236 294.462 392.145 293.656 391.847 292.917L389.426 284.847C388.767 282.638 382.122 282.522 379.907 282.918C376.531 283.503 374.258 286.388 370.676 286.718Z" fill="#65617D"/>
<path d="M399.2 332.178C399.085 334.94 399.307 337.734 398.854 340.471C398.456 342.629 397.766 344.722 396.804 346.694C395.323 349.865 393.441 352.832 391.204 355.522C389.121 357.995 386.626 360.32 383.538 361.292C380.45 362.265 376.654 361.564 374.728 358.96C373.155 356.841 373.081 354.014 373.196 351.368C373.476 344.864 374.497 338.27 377.412 332.45C378.664 329.977 380.253 327.62 381.529 325.122C384.197 319.938 385.72 313.788 390.323 310.211C393.211 311.547 396.299 312.396 399.464 312.725C400.69 312.857 404.198 312.939 404.61 314.514C404.89 315.577 402.584 318.553 402.14 319.6C400.382 323.571 399.385 327.838 399.2 332.178Z" fill="#65617D"/>
<path d="M366.559 213.298C367.547 215.82 368.799 218.293 369.03 220.981C369.194 222.629 369.03 224.278 369.03 225.926C369.168 228.185 369.543 230.423 370.149 232.603L374.736 251.397C375.419 254.208 376.103 257.093 375.749 259.962C375.51 261.874 374.818 263.729 374.826 265.649C374.914 267.106 375.146 268.55 375.518 269.96C376.387 274.318 376.149 278.825 374.826 283.067C374.691 283.386 374.643 283.736 374.687 284.08C374.802 284.616 375.321 284.946 375.79 285.201C380.728 287.906 386.111 289.701 391.682 290.502C396.711 278.526 400.224 265.968 402.14 253.12C403.309 245.339 403.877 237.458 405.376 229.735C405.41 229.288 405.599 228.868 405.911 228.548C406.471 228.078 407.319 228.374 407.978 228.688C416.393 232.739 424.489 237.423 432.195 242.701C434.905 239.188 436.81 235.122 437.777 230.79C438.743 226.458 438.746 221.967 437.786 217.634C436.818 213.898 435.437 210.282 433.669 206.852C431.785 202.68 429.437 198.735 426.67 195.089C420.56 187.423 411.601 182.527 402.379 179.205C396.771 177.177 390.999 175.677 385.235 174.144C382.007 173.279 376.597 170.459 373.46 172.652C370.166 174.935 367.976 180.598 366.625 184.192C364.958 188.65 364.051 193.356 363.941 198.115C363.805 203.299 364.695 208.459 366.559 213.298Z" fill="#3F3D56"/>
<path d="M432.755 235.958C431.034 237.837 432.483 240.838 432.154 243.377C431.939 244.523 431.529 245.624 430.943 246.633L423.063 262.121C421.746 264.446 420.759 266.943 420.132 269.54C419.053 275.129 421.268 281.41 418.436 286.347C417.522 287.938 416.105 289.307 415.726 291.104C415.446 292.414 415.726 293.782 415.586 295.11C415.397 296.668 414.565 298.069 414.104 299.569C413.745 301.011 413.489 302.476 413.338 303.954C412.339 310.258 409.042 315.967 404.083 319.979C401.242 322.389 397.593 323.632 393.873 323.457C390.2 323.144 386.552 320.646 385.803 317.036C385.548 315.808 385.597 314.439 384.831 313.442C383.744 312.016 381.455 311.958 380.409 310.499L384.461 303.822C385.721 301.753 387.005 299.594 387.211 297.179C387.458 294.219 386.033 291.268 386.544 288.342C386.98 285.828 388.784 283.734 389.327 281.245C390.002 278.154 388.652 275.03 387.919 271.947C386.124 264.355 388.133 256.442 390.134 248.867C392.794 238.843 395.519 228.663 400.905 219.802C411.65 225.597 421.532 231.161 432.755 235.958Z" fill="#3F3D56"/>
<path d="M432.854 78.9461C433.496 80.6937 433.15 82.6307 433.026 84.4854C432.738 88.6069 433.611 92.7284 433.413 96.9076C433.216 101.087 431.931 105.076 431.042 109.14C428.514 120.738 429.123 132.822 426.834 144.469C424.01 158.895 416.788 172.331 415.364 186.97C414.911 191.619 414.969 196.598 412.424 200.522C397.304 193.859 383.012 185.455 369.836 175.48C372.735 153.957 375.6 132.328 375.213 110.616C375.026 107.998 375.209 105.367 375.757 102.801C376.444 100.646 377.431 98.5979 378.688 96.718C381.875 91.5331 385.383 86.5544 388.882 81.5839C391.122 78.4021 393.543 75.0637 397.117 73.5717C400.69 72.0798 404.923 72.7474 408.818 73.4563C413.506 74.3136 418.188 75.1709 422.865 76.0281C425.788 76.5639 431.602 75.5418 432.854 78.9461Z" fill="#E9B7BB"/>
<path d="M320.101 161.417C318.18 159.493 316.085 157.752 313.843 156.216C316.766 152.655 316.19 147.503 316.906 142.945C317.493 139.984 318.384 137.091 319.566 134.314C319.862 133.531 320.282 132.666 321.097 132.46C321.598 132.398 322.106 132.478 322.563 132.69C325.033 133.564 330.188 133.515 332.107 135.114C334.421 137.059 332.304 141.131 331.432 143.563C330.814 145.195 321.328 162.654 320.101 161.417Z" fill="#BE6F72"/>
<path d="M327.274 315.354C328.514 317.364 329.324 319.609 329.654 321.949C329.851 324.29 328.995 326.853 327.002 328.09C325.009 329.326 322.152 328.914 319.781 328.172C314.751 326.534 310.123 323.852 306.199 320.301C302.276 316.75 299.145 312.41 297.013 307.565C296.263 305.834 295.613 303.995 294.287 302.66C293.302 301.793 292.209 301.059 291.035 300.476C287.799 298.646 284.678 296.239 283.179 292.826C281.68 289.414 282.356 284.855 285.46 282.827C286.427 282.268 287.497 281.907 288.605 281.765C289.713 281.624 290.839 281.705 291.916 282.003C294.062 282.613 296.117 283.509 298.026 284.666C301.22 286.405 305.124 287.905 307.907 290.221C310.377 292.257 312.592 295.011 314.7 297.409C317.114 300.169 319.377 303.058 321.477 306.064C322.152 306.946 327.842 314.555 327.274 315.354Z" fill="#65617D"/>
<path d="M266.916 298.052C266.636 302.2 265.904 306.305 264.734 310.293C264.067 312.535 263.186 314.868 261.333 316.294C259.766 317.311 257.99 317.962 256.137 318.198C255.491 318.374 254.816 318.416 254.153 318.322C253.016 318.083 252.209 317.102 251.509 316.17C248.759 312.527 246.083 308.678 244.922 304.259C243.275 297.854 244.922 290.988 247.779 285.004C248.806 282.591 250.304 280.408 252.185 278.582C254.508 276.671 257.3 275.416 260.271 274.947C263.309 274.337 267.039 273.035 267.262 276.736C267.587 283.842 267.471 290.961 266.916 298.052Z" fill="#65617D"/>
<path d="M312.476 143.117C318.158 146.06 324.466 149.802 325.651 156.092C326.384 159.933 324.976 163.865 325.207 167.772C325.413 171.209 326.854 174.531 326.672 177.96C326.48 179.581 326.205 181.19 325.849 182.783C325.363 185.824 325.651 188.924 325.528 191.998C325.256 198.922 322.942 205.583 321.822 212.416C321.03 217.295 320.844 222.254 321.271 227.179C321.542 230.361 322.094 233.526 322.094 236.725C322.094 239.028 321.904 241.327 321.526 243.599C320.422 250.737 318.199 257.656 314.939 264.099C310.978 271.905 311.538 281.978 311.958 290.724C312.141 291.929 311.987 293.162 311.513 294.285C310.476 296.173 307.89 296.445 305.749 296.263C297.81 295.537 290.447 291.805 285.163 285.828C284.393 285.076 283.87 284.107 283.665 283.05C283.483 281.286 284.9 279.835 285.921 278.376C289.396 273.43 288.515 266.729 288.926 260.654C289.227 256.234 290.282 251.899 292.047 247.836C293.068 245.487 294.344 243.171 294.575 240.615C294.789 238.233 294.065 235.875 293.348 233.6L290.878 225.753C287.049 213.562 283.195 201.296 277.398 189.913C273.595 192.39 270.873 196.22 269.782 200.629C267.624 208.393 270.696 217.065 267.756 224.533C267.269 225.569 266.864 226.641 266.545 227.74C266.372 228.688 266.306 229.653 266.348 230.616C266.424 238.651 266.913 246.677 267.814 254.661C267.858 255.87 268.197 257.051 268.802 258.099C269.287 258.799 269.996 259.318 270.514 259.986C271.955 261.857 271.684 264.479 271.338 266.811L269.691 277.84C269.662 278.4 269.476 278.939 269.156 279.398C268.767 279.775 268.283 280.037 267.756 280.157C262.523 281.783 257.008 282.289 251.567 281.64C249.962 281.451 248.504 280.371 247.162 279.464C247.022 277.816 249.072 276.719 249.146 275.079C249.067 274.107 248.615 273.204 247.886 272.557C244.823 269.095 241.167 265.418 241.2 260.794C241.2 259.582 241.488 258.371 241.447 257.159C241.34 254.051 239.199 251.389 238.45 248.397C237.528 244.695 238.755 240.854 239.224 237.071C239.866 231.977 239.109 226.816 238.401 221.731L235.642 203.068C235.321 200.172 234.748 197.309 233.929 194.512C232.891 191.759 231.672 189.077 230.281 186.484C227.646 181.126 225.481 175.553 223.323 169.998C222.638 168.488 222.207 166.876 222.047 165.225C221.924 162.398 223.381 159.727 225.193 157.551C228.586 153.507 233.217 150.696 238.368 149.555C239.228 149.315 240.133 149.278 241.011 149.448C241.749 149.693 242.441 150.058 243.061 150.528C249.426 154.695 256.669 157.331 264.223 158.228C271.776 159.124 279.433 158.258 286.596 155.696C287.419 156.323 288.943 156.051 289.89 155.605C292.533 154.394 294.69 152.374 297.012 150.66C301.335 147.379 307.165 144.263 312.476 143.117Z" fill="#3F3D56"/>
<path d="M141.803 354.805C142.24 356.068 142.898 357.243 143.747 358.275C146.727 362.166 150.886 365.274 152.804 369.815C153.208 370.788 153.504 371.81 153.875 372.799C155.002 375.785 156.839 378.45 159.227 380.564C161.049 382.078 163.028 383.391 165.131 384.48C168.771 386.466 172.707 388.263 176.84 388.156C177.672 388.138 178.499 388.039 179.311 387.859C180.597 387.592 181.838 387.137 182.991 386.507C185.651 385.04 187.932 382.172 187.405 379.179C187.299 378.609 187.119 378.055 186.87 377.531C186.433 376.697 185.929 375.9 185.363 375.149C183.971 373.22 182.539 371.241 180.505 370.005C178.215 368.604 175.333 368.258 173.275 366.526C172.463 365.791 171.761 364.941 171.192 364.004C169.326 361.133 167.935 357.98 167.074 354.665C166.449 352.192 166.029 349.48 164.225 347.667C162.422 345.853 159.944 345.441 157.539 345.029C156.727 344.861 155.898 344.781 155.069 344.79C153.891 344.831 152.673 345.169 151.569 344.617C150.466 344.064 150.095 343.281 148.761 343.388C147.7 343.532 146.699 343.969 145.871 344.65C142.742 346.966 140.667 351.087 141.803 354.805Z" fill="#3F3D56"/>
<path d="M171.06 358.556C171.595 361.35 172.419 364.326 174.576 366.147C175.951 367.334 177.87 368.076 178.553 369.75C179.237 371.423 178.355 373.525 177.219 375.058C175.768 376.997 173.97 378.649 171.916 379.93C170.171 381.01 168.087 381.834 166.086 381.356C164.439 380.968 163.138 379.781 161.911 378.636C159.095 376.023 156.213 373.311 154.632 369.807C152.985 366.114 152.903 361.836 151.108 358.201C150.062 356.083 148.448 354.228 147.814 351.953C147.53 351.131 147.53 350.237 147.814 349.414C148.121 348.826 148.586 348.335 149.156 347.995C149.726 347.656 150.379 347.482 151.042 347.494C152.368 347.538 153.675 347.817 154.904 348.318C158.622 349.644 162.427 350.71 166.292 351.508C167.832 351.796 168.762 351.788 169.586 353.28C170.347 354.952 170.844 356.731 171.06 358.556Z" fill="#FBBEBE"/>
<path d="M180.612 382.18C180.001 383.115 179.569 384.154 179.335 385.246C179.141 386.096 179.11 386.974 179.245 387.835C180.531 387.568 181.772 387.112 182.926 386.483C185.585 385.016 187.866 382.147 187.339 379.155C187.233 378.585 187.053 378.03 186.804 377.506C186.411 377.418 186.002 377.435 185.617 377.555C185.233 377.675 184.887 377.894 184.614 378.19C183.08 379.304 181.73 380.65 180.612 382.18Z" fill="#FBBEBE"/>
<path d="M151.1 319.55C150.742 320.322 150.635 321.187 150.795 322.023C151.174 323.671 152.862 324.619 154.386 325.369L168.87 332.458C169.875 332.924 170.853 333.444 171.801 334.016C174.271 335.533 176.215 337.676 178.323 339.638C180.431 341.6 182.778 343.438 185.569 344.13C188.356 344.742 191.268 344.36 193.803 343.05C195.17 342.369 196.438 341.507 197.575 340.487C198.558 339.623 199.468 338.677 200.292 337.66C201 336.911 201.507 335.995 201.766 334.997C202.038 333.489 201.288 332.005 200.415 330.76C199.913 330.043 199.363 329.36 198.769 328.716C193.276 322.641 184.276 319.492 176.536 318.256C173.456 317.761 170.533 316.607 167.569 315.667C164.604 314.728 161.467 314.019 158.387 314.456C155.308 314.892 152.278 316.665 151.1 319.55Z" fill="#3F3D56"/>
<path opacity="0.1" d="M151.1 319.55C150.742 320.322 150.635 321.187 150.795 322.023C151.174 323.671 152.862 324.619 154.386 325.369L168.87 332.458C169.875 332.924 170.853 333.444 171.801 334.016C174.271 335.533 176.215 337.676 178.323 339.638C180.431 341.6 182.778 343.438 185.569 344.13C188.356 344.742 191.268 344.36 193.803 343.05C195.17 342.369 196.438 341.507 197.575 340.487C198.558 339.623 199.468 338.677 200.292 337.66C201 336.911 201.507 335.995 201.766 334.997C202.038 333.489 201.288 332.005 200.415 330.76C199.913 330.043 199.363 329.36 198.769 328.716C193.276 322.641 184.276 319.492 176.536 318.256C173.456 317.761 170.533 316.607 167.569 315.667C164.604 314.728 161.467 314.019 158.387 314.456C155.308 314.892 152.278 316.665 151.1 319.55Z" fill="black"/>
<path d="M187.348 324.075C188.461 325.327 189.378 326.742 190.065 328.271C190.683 329.272 190.904 330.47 190.683 331.626C190.359 332.404 189.84 333.086 189.176 333.604L187.735 334.939C187.299 335.392 186.793 335.771 186.236 336.061C185.448 336.356 184.606 336.483 183.766 336.431C181.831 336.431 179.747 336.431 178.175 335.269C176.025 333.72 175.638 330.513 176.618 328.048C177.598 325.584 179.649 323.721 181.715 322.056C183.395 320.696 186.17 322.831 187.348 324.075Z" fill="#FBBEBE"/>
<path d="M196.142 332.599C195.875 333.966 196.004 335.382 196.512 336.679C196.874 337.915 197.229 339.152 197.583 340.413C197.583 340.413 197.583 340.413 197.583 340.462C198.566 339.598 199.476 338.653 200.3 337.635C201.008 336.887 201.515 335.97 201.774 334.973C202.046 333.464 201.296 331.98 200.423 330.736C199.921 330.018 199.371 329.335 198.777 328.691C198.39 329.194 198.052 329.689 197.772 330.01C197.051 330.748 196.496 331.63 196.142 332.599Z" fill="#FBBEBE"/>
<path d="M158.306 271.164C156.601 278.335 157.326 285.836 158.231 293.156C158.923 298.728 159.697 304.498 158.05 309.864C157.441 311.868 156.478 313.904 156.848 315.973C157.548 319.871 162.242 321.372 166.128 322.105C167.249 322.391 168.415 322.461 169.562 322.311C170.713 321.998 171.781 321.435 172.691 320.663C178.215 316.642 182.411 311.059 184.738 304.63C186.212 300.327 186.681 295.752 187.134 291.227C187.891 283.611 188.657 275.903 187.546 268.336C187.216 266.111 186.722 263.91 186.516 261.668C186.257 257.768 186.473 253.851 187.159 250.004C188.576 240.473 190.724 231.065 193.581 221.863C185.74 222.905 177.77 221.464 170.789 217.741C172.139 218.466 170.591 230.031 170.426 231.655C169.927 236.496 169.054 241.291 167.816 245.998C165.519 254.793 160.389 262.426 158.306 271.164Z" fill="#3F3D56"/>
<path opacity="0.1" d="M158.306 271.164C156.601 278.335 157.326 285.836 158.231 293.156C158.923 298.728 159.697 304.498 158.05 309.864C157.441 311.868 156.478 313.904 156.848 315.973C157.548 319.871 162.242 321.372 166.128 322.105C167.249 322.391 168.415 322.461 169.562 322.311C170.713 321.998 171.781 321.435 172.691 320.663C178.215 316.642 182.411 311.059 184.738 304.63C186.212 300.327 186.681 295.752 187.134 291.227C187.891 283.611 188.657 275.903 187.546 268.336C187.216 266.111 186.722 263.91 186.516 261.668C186.257 257.768 186.473 253.851 187.159 250.004C188.576 240.473 190.724 231.065 193.581 221.863C185.74 222.905 177.77 221.464 170.789 217.741C172.139 218.466 170.591 230.031 170.426 231.655C169.927 236.496 169.054 241.291 167.816 245.998C165.519 254.793 160.389 262.426 158.306 271.164Z" fill="black"/>
<path d="M201.057 229.141C204.351 238.695 203.627 249.13 202.202 259.137C200.778 269.144 198.678 279.151 199.295 289.232C199.534 293.189 200.176 297.253 199.024 301.036C198.383 302.882 197.535 304.649 196.496 306.304L170.22 351.788C169.55 352.969 168.597 353.963 167.447 354.683C166.297 355.403 164.986 355.824 163.632 355.91C160.825 356.108 158.066 355.184 155.448 354.154C153.708 353.577 152.091 352.679 150.68 351.508C149.981 350.925 149.433 350.181 149.083 349.34C148.733 348.499 148.591 347.585 148.671 346.678C149.848 338.781 151.619 330.694 152.928 322.773C153.818 317.398 155.76 312.252 158.642 307.631C160.676 304.333 163.18 301.374 164.933 297.945C169.973 288.12 168.227 276.134 164.341 265.798C160.454 255.461 154.665 245.866 151.577 235.299C150.662 232.358 150.139 229.309 150.021 226.231C149.983 223.053 150.571 219.898 151.753 216.948C152.934 213.997 154.685 211.309 156.905 209.037C157.553 208.302 158.37 207.736 159.285 207.388C160.354 207.14 161.469 207.159 162.529 207.446C177.161 210.289 196.224 215.029 201.057 229.141Z" fill="#3F3D56"/>
<path d="M437.243 86.513C437.72 90.1234 436.419 93.775 434.566 96.8991C427.559 108.604 411.403 113.781 398.912 108.332C393.765 106.082 389.409 102.372 385.144 98.7126C383.711 97.4761 382.221 96.182 381.496 94.4345C380.22 91.3434 381.76 87.6587 384.271 85.4496C386.783 83.2405 390.035 82.1524 393.271 81.1715C403.951 77.8414 434.698 67.3398 437.243 86.513Z" fill="#FBBEBE"/>
<path d="M430.993 75.0554C440.717 82.8862 454.872 90.3461 465.89 96.1492C469.636 98.1275 473.795 100.353 475.145 104.392C475.87 106.552 475.631 108.901 475.392 111.176C474.931 115.553 474.454 119.996 472.765 124.06C470.781 128.816 467.273 132.74 464.457 137.059C459.516 144.626 456.618 153.545 450.516 160.23C454.634 173.922 459.138 187.597 460.603 201.808C460.684 202.198 460.641 202.605 460.48 202.97C460.311 203.21 460.092 203.41 459.838 203.555L449.594 210.281C448.477 210.934 447.478 211.77 446.638 212.754C444.826 215.112 445.065 218.425 443.945 221.17C443.331 222.51 442.453 223.712 441.364 224.703C440.274 225.695 438.996 226.456 437.605 226.94C434.806 227.906 431.824 228.222 428.885 227.864C425.143 227.628 421.54 226.358 418.477 224.195C415.866 222.217 414.005 219.439 412.21 216.703C410.88 214.836 409.775 212.819 408.916 210.693C407.821 207.66 407.755 204.355 407.797 201.123C407.824 194.975 408.411 188.841 409.551 182.799C410.028 180.401 410.621 178.035 411 175.62C411.757 170.756 411.609 165.794 412.169 160.906C412.934 155.408 414.16 149.984 415.833 144.692C416.749 141.414 417.464 138.083 417.974 134.718C418.938 128.8 420.856 123.087 422.775 117.408L426.069 107.673C426.769 105.571 427.477 103.477 428.308 101.425C429.856 97.5917 431.849 93.8576 432.376 89.7691C432.961 85.3097 428.152 80.0177 429.774 75.8303C429.906 75.3686 430.622 74.7587 430.993 75.0554Z" fill="#3F3D56"/>
<path d="M472.51 102.092C474.791 103.122 476.051 105.579 476.866 107.953C478.704 113.303 479.146 119.034 478.15 124.604C477.829 126.004 477.609 127.425 477.492 128.857C477.509 130.517 477.671 132.172 477.978 133.803C478.801 140.109 477.978 146.513 478.249 152.877C478.529 160.032 480.086 167.591 477.088 174.094C475.096 178.414 471.324 181.628 467.602 184.546C453.746 195.357 438.457 204.19 422.174 210.792C424.981 207.412 425.031 202.327 423.162 198.345C421.293 194.364 417.818 191.372 414.104 189.047C418.831 187.995 423.409 186.359 427.732 184.176C436.361 179.79 443.756 173.369 451.06 167.014C452.137 166.238 452.976 165.176 453.48 163.947C454.222 161.474 452.179 159.125 450.763 156.957C446.473 150.363 447.469 141.749 449.264 134.116C451.265 125.749 454.205 117.416 459.566 110.689C462.909 106.486 467.273 103.254 472.51 102.092Z" fill="#3F3D56"/>
<path d="M421.449 210.998C420.709 212.206 419.748 213.263 418.617 214.114C416.146 215.763 412.754 215.136 409.995 213.966C407.432 212.877 405.066 211.37 402.996 209.506C402.106 208.559 401.055 207.778 399.892 207.198C397.734 206.374 394.721 206.992 393.51 205.006C393.369 204.797 393.3 204.548 393.312 204.297C393.387 203.58 394.325 203.382 395.05 203.341C398.412 203.118 401.675 202.11 404.577 200.398C403.65 199.727 402.857 198.888 402.239 197.925C401.982 197.589 401.843 197.178 401.843 196.755C401.944 196.295 402.196 195.882 402.56 195.584C405.206 193.083 408.537 191.428 412.127 190.829C415.717 190.23 419.403 190.715 422.717 192.221C423.364 192.483 423.932 192.909 424.364 193.457C424.669 193.963 424.873 194.523 424.965 195.106C425.5 197.414 427.436 200.876 426.736 203.209C425.962 205.888 423.038 208.732 421.449 210.998Z" fill="#FBBEBE"/>
<path d="M365.299 200.604C375.543 188.759 380.121 173.171 384.37 158.095L387.408 147.379L394.737 121.57C395.816 117.762 396.894 113.954 397.611 110.071C398.838 103.37 398.953 96.52 398.879 89.7113C398.774 86.8887 398.128 84.1127 396.977 81.5342C396.26 79.7538 395.914 77.8579 395.33 76.0197C394.586 73.457 393.474 71.0162 392.028 68.7741C391.625 68.1075 391.123 67.507 390.537 66.9937C389.524 66.3043 388.376 65.8379 387.17 65.6253C384.552 64.8461 381.839 64.4328 379.108 64.3971C376.374 64.496 373.558 65.444 371.796 67.5212C370.454 69.1121 369.836 71.1728 368.774 72.9616C368.28 73.6939 367.831 74.4565 367.432 75.2449C366.979 76.4425 366.729 77.7072 366.691 78.9872C366.263 84.1802 365.898 89.3788 365.596 94.5829C365.456 96.9486 365.332 99.3308 365.423 101.705C365.497 103.551 365.694 105.389 365.892 107.228L367.844 125.23C368.297 129.459 367.975 133.415 368.354 137.652C369.276 147.882 367.078 158.111 364.822 168.151C363.743 172.924 362.631 177.763 360.326 182.082C358.292 185.907 355.245 189.789 356.052 194.051C356.332 195.534 357.081 196.919 357.197 198.419C357.14 199.349 357.232 200.281 357.468 201.181C357.804 201.793 358.326 202.283 358.958 202.579C359.59 202.875 360.299 202.963 360.984 202.829C362.615 202.543 364.12 201.767 365.299 200.604Z" fill="#3F3D56"/>
<path d="M366.551 153.199C366.864 155.564 366.625 157.963 366.74 160.345C366.999 163.413 367.55 166.45 368.387 169.413C369.211 172.71 370.265 176.403 373.172 178.233C373.901 178.612 374.597 179.05 375.255 179.543C375.579 179.799 375.817 180.147 375.937 180.542C376.058 180.937 376.056 181.359 375.93 181.752L373.666 181.373C373.923 181.57 374.135 181.818 374.289 182.103C374.444 182.388 374.536 182.701 374.561 183.024C374.586 183.347 374.542 183.671 374.433 183.976C374.324 184.281 374.152 184.559 373.928 184.793C373.704 185.026 373.433 185.21 373.133 185.332C372.833 185.453 372.511 185.51 372.188 185.498C371.865 185.487 371.548 185.407 371.258 185.264C370.967 185.122 370.71 184.919 370.504 184.67C370.589 185.413 370.519 186.165 370.298 186.879C370.183 187.23 369.964 187.536 369.669 187.757C369.374 187.979 369.019 188.104 368.651 188.116C368.224 188.049 367.82 187.88 367.473 187.621L361.561 183.953C359.79 182.998 358.316 181.572 357.304 179.832L354.718 175.933C354.148 175.181 353.696 174.347 353.376 173.46C352.413 170.163 355.105 166.503 353.706 163.395C353.285 162.629 352.791 161.906 352.232 161.236C349.243 157.114 349.432 151.509 349.761 146.398C349.868 144.675 350.181 142.631 351.738 141.881C352.973 141.279 354.455 141.815 355.599 142.565C356.744 143.315 357.757 144.304 359.058 144.75C359.881 145.03 360.787 145.063 361.611 145.36C362.763 145.763 363.834 147.338 364.608 148.269C365.702 149.699 366.375 151.406 366.551 153.199Z" fill="#FBBEBE"/>
<path d="M294.393 79.1191C293.694 80.7262 292.712 82.1947 291.495 83.4548C290.883 84.0845 290.132 84.5617 289.303 84.848C288.473 85.1344 287.588 85.2218 286.719 85.1034C284.891 84.7407 283.549 83.2323 282.338 81.8063C279.176 78.0887 275.973 74.3216 273.849 69.9199C270.604 63.2184 270.086 55.5689 269.616 48.142C269.501 46.2296 269.402 44.2018 270.316 42.5285C271.477 40.3936 273.939 39.388 276.212 38.5389L288.769 33.8404C289.539 33.4756 290.391 33.3192 291.24 33.3871C293.208 33.7168 293.932 36.0908 294.468 38.0114C295.426 41.4627 297.017 44.7053 299.161 47.5732C301.977 51.332 308.293 56.3932 304.686 61.0834C300.33 66.7051 297.564 72.772 294.393 79.1191Z" fill="#BE6F72"/>
<path d="M310.459 57.6707C315.959 62.8473 317.82 70.9089 317.557 78.4512C317.293 85.9935 315.202 93.3463 314.008 100.798C312.814 108.25 312.575 116.204 315.811 123.054C316.923 125.403 318.438 127.579 319.212 130.06C319.861 132.513 320.081 135.059 319.862 137.586C319.849 140.251 319.341 142.889 318.364 145.368C316.61 149.258 313.003 151.962 309.553 154.435C302.513 159.529 295.332 164.706 287.065 167.368C281.466 169.173 275.537 169.767 269.674 170.088C265.705 170.405 261.713 170.292 257.767 169.75C250.866 168.599 244.524 165.238 239.693 160.172C238.851 159.355 238.157 158.399 237.643 157.345C237.14 155.973 236.897 154.519 236.926 153.058C236.729 147.645 236.762 142.233 237.025 136.82C237.176 131.661 237.886 126.534 239.141 121.529C240.714 115.759 243.44 110.351 245.506 104.73C252.703 85.1857 251.979 62.9462 261.975 44.6963C264.132 40.7561 267.739 36.6099 272.186 37.2364C273.041 37.2879 273.846 37.6585 274.442 38.275C274.953 39.0252 275.238 39.9062 275.265 40.8138C276.327 49.6833 277.834 58.7835 282.009 66.7874C283.656 69.928 286.126 74.7089 289.922 75.5497C293.718 76.3905 295.958 72.7636 297.992 70.1918C301.566 65.4756 305.759 61.2639 310.459 57.6707Z" fill="#E3E8F4"/>
<path d="M336.784 44.3255C337.906 44.9325 338.954 45.6683 339.905 46.5181C342.376 48.8591 343.281 52.4448 343.265 55.8409C343.248 59.237 342.441 62.5837 341.947 65.9468C340.622 75.014 341.75 84.2956 342.277 93.4783C342.437 94.9609 342.348 96.4599 342.013 97.913C341.61 99.2978 340.778 100.518 340.243 101.861C338.67 105.834 339.856 110.368 338.934 114.539C337.946 118.982 334.561 123.021 335.195 127.53C335.451 129.294 336.299 130.918 336.661 132.665C337.023 134.413 336.71 136.523 335.203 137.463C333.697 138.402 331.506 137.718 329.711 138.238C328.982 138.507 328.272 138.827 327.587 139.194C324.812 140.447 321.502 140.018 318.768 138.65C316.088 137.186 313.679 135.273 311.645 132.995C308.508 129.78 305.469 126.261 304.094 121.982C302.085 115.784 303.872 109.033 306.054 102.884C308.236 96.7343 310.838 90.5191 310.451 83.9824C310.237 80.3225 309.084 76.8028 308.393 73.2088C307.536 68.2294 307.23 63.1708 307.479 58.1242C307.586 54.4314 307.833 50.6231 309.422 47.2847C310.555 45.0578 312.228 43.1512 314.288 41.7399C316.348 40.3285 318.73 39.4574 321.213 39.2066C326.977 38.5801 331.918 41.5229 336.784 44.3255Z" fill="#3F3D56"/>
<path opacity="0.1" d="M321.213 124.002C321.271 126.64 321.743 129.252 322.613 131.742C324.087 128.379 324.26 124.604 324.457 120.944C325.281 108.34 328.072 96.454 331.045 84.2462C328.879 85.8948 327.66 90.0162 326.623 92.4891C322.505 102.461 320.657 113.226 321.213 124.002Z" fill="black"/>
<path d="M265.706 36.1815C261.737 37.2283 258.295 39.5858 254.45 41.1273C250.456 42.7759 246.158 43.4765 241.966 44.4904C232.266 46.8479 222.525 51.2249 216.67 59.3277C212.356 65.2874 210.569 72.6484 207.613 79.3993C205.142 85.0623 201.849 90.3707 200.029 96.2645C197.649 103.955 197.921 112.198 198.506 120.227C198.983 126.821 199.708 133.49 202.697 139.334C204.261 142.4 206.419 145.145 207.983 148.212C209.861 151.896 210.849 155.96 212.413 159.752C213.978 163.544 216.275 167.335 219.907 169.314L225.918 165.794C234.885 160.543 243.852 155.284 252.539 149.58C260.115 144.634 267.756 138.955 271.791 130.827C275.365 123.648 275.719 115.256 274.797 107.285C273.874 99.3144 271.766 91.5165 270.679 83.5703C269.295 73.569 269.503 63.4112 271.297 53.4752C272.12 48.9911 274.311 44.3585 274.764 39.8908C275.266 35.1181 269.14 35.2748 265.706 36.1815Z" fill="#3F3D56"/>
<path d="M228.544 167.22C233.147 171.58 239.767 172.85 245.523 175.463C249.799 177.451 253.65 180.25 256.862 183.706C258.632 185.651 260.345 188.297 259.455 190.77C258.706 192.897 256.409 193.985 254.301 194.776C251.682 195.765 248.759 196.639 246.149 195.642C244.617 195.056 243.382 193.886 241.974 193.053C238.524 191.001 234.176 190.993 230.635 189.097C225.645 186.426 223.159 180.549 218.465 177.375C215.896 175.644 212.347 174.226 212.083 171.135C212.071 170.018 212.307 168.911 212.775 167.896C213.722 165.374 215.336 156.71 218.943 156.941C222.87 157.197 225.621 165.134 228.544 167.22Z" fill="#FBBEBE"/>
<path d="M204.425 128.585C205.932 134.009 209.432 138.633 213.063 142.936C215.674 146.027 218.539 149.39 218.63 153.438C218.712 157.262 216.159 160.782 212.866 162.736C209.572 164.689 205.694 165.316 201.881 165.563C198.831 165.857 195.754 165.643 192.774 164.928C185.248 162.884 180.027 156.314 174.107 151.237C170.591 148.228 166.638 145.607 163.946 141.84C161.253 138.073 160.117 132.665 162.768 128.865C163.725 127.634 164.831 126.526 166.062 125.568C170.559 121.665 174.393 117.058 177.417 111.926C178.636 109.857 179.805 107.615 181.855 106.37C184.795 104.582 188.566 105.398 191.893 106.271C195.508 107.219 205.694 109.074 206.402 113.69C206.69 115.586 204.343 118.537 203.989 120.573C203.538 123.243 203.688 125.98 204.425 128.585Z" fill="#FBBEBE"/>
<path d="M223.043 138.922C224.122 140.879 225.01 142.935 225.695 145.063C228.206 153.8 223.718 162.801 221.577 171.638C218.844 182.956 220.005 194.792 219.873 206.44C219.815 211.765 219.247 217.625 215.418 221.318C214.43 222.258 213.244 223.049 212.577 224.236C212.165 225.106 211.858 226.022 211.663 226.965C211.079 229.001 210.042 230.88 208.63 232.459C207.218 234.038 205.469 235.277 203.511 236.084C201.554 236.891 199.44 237.245 197.326 237.119C195.213 236.992 193.156 236.39 191.308 235.356C188.187 233.617 185.478 230.6 181.904 230.509C180.781 230.564 179.662 230.687 178.553 230.88C174.996 231.235 171.513 229.916 168.178 228.622C167.382 228.37 166.639 227.973 165.987 227.451C165.386 226.899 164.999 226.157 164.448 225.563C162.414 223.371 158.939 223.75 156.007 223.14C153.82 222.65 151.817 221.547 150.233 219.961C148.648 218.374 147.546 216.369 147.057 214.18C146.464 211.344 146.966 208.41 147.46 205.55L149.667 192.806C150.593 188.132 151.234 183.405 151.586 178.653C151.856 173.282 151.396 167.9 150.219 162.653C149.247 158.367 147.798 154.171 147.271 149.802C146.353 141.973 148.41 134.084 153.035 127.703C154.179 126.129 155.678 124.554 157.621 124.406C159.194 124.266 160.668 125.106 162.035 125.914C173.909 132.948 185.865 139.837 197.904 146.579C201.198 148.434 204.565 150.297 208.238 151.212C209.341 151.492 210.922 151.377 211.079 150.256C211.098 149.828 210.986 149.405 210.758 149.044C208.699 145.079 205.718 141.675 203.347 137.899C200.975 134.124 199.147 129.657 199.847 125.271C200.802 119.204 206.435 115.19 211.038 119.946C216.2 125.345 219.659 132.286 223.043 138.922Z" fill="#F86D70"/>
<path d="M186.17 215.853C195.829 216.472 205.702 217.131 214.644 220.84C217.518 222.027 220.565 223.561 223.587 222.827C225.091 222.369 226.49 221.618 227.704 220.618C231.427 217.885 234.944 214.882 238.227 211.633C237.898 209.828 235.452 209.581 233.624 209.597C229.167 209.624 224.77 208.566 220.812 206.514C219.511 205.731 218.131 205.087 216.694 204.594C212.783 203.514 208.798 205.575 204.87 206.58C199.057 208.064 192.93 207.198 186.993 206.325L170.969 203.959C169.479 203.745 167.799 203.571 166.613 204.495C165.821 205.244 165.277 206.22 165.057 207.289C163.097 213.883 164.036 214.436 170.558 214.848L186.17 215.853Z" fill="#FBBEBE"/>
<path opacity="0.1" d="M404.972 101.408C419.525 101.408 431.322 89.5984 431.322 75.0306C431.322 60.4627 419.525 48.6531 404.972 48.6531C390.419 48.6531 378.622 60.4627 378.622 75.0306C378.622 89.5984 390.419 101.408 404.972 101.408Z" fill="black"/>
<path d="M404.783 100.262C419.336 100.262 431.133 88.4528 431.133 73.8849C431.133 59.317 419.336 47.5074 404.783 47.5074C390.231 47.5074 378.433 59.317 378.433 73.8849C378.433 88.4528 390.231 100.262 404.783 100.262Z" fill="#FBBEBE"/>
<path d="M427.024 40.3937C429.132 41.6961 431.339 43.0974 432.491 45.29C433.111 46.7786 433.583 48.3247 433.9 49.9061C435.341 54.8518 439.178 59.1464 439.408 64.2983C439.664 69.9447 435.431 74.8493 430.639 77.8085C429.545 78.6156 428.226 79.0595 426.867 79.0779C425.476 78.9872 424.274 78.1135 422.997 77.553C417.587 75.146 411.535 78.1959 405.804 79.5972C399.848 81.037 393.6 80.6697 387.853 78.5421C384.765 77.3881 381.768 75.6571 379.833 72.9781C377.898 70.2992 377.206 66.5486 378.853 63.6718C379.676 62.2046 381.043 60.8774 380.953 59.2041C380.903 58.1985 380.311 57.2918 380.129 56.3026C379.866 54.7282 380.689 53.195 381.529 51.8514C385.34 45.7124 390.156 40.2591 395.775 35.7199C397.421 34.3681 399.324 33.0492 401.481 32.9503C405.812 32.7607 409.534 35.9919 413.989 36.0084C419.045 36.0249 422.676 37.7065 427.024 40.3937Z" fill="#3F3D56"/>
<path opacity="0.1" d="M307.783 68.3125C322.79 68.3125 334.956 56.1339 334.956 41.1108C334.956 26.0876 322.79 13.909 307.783 13.909C292.776 13.909 280.61 26.0876 280.61 41.1108C280.61 56.1339 292.776 68.3125 307.783 68.3125Z" fill="black"/>
<path d="M308.26 67.6449C323.268 67.6449 335.434 55.4662 335.434 40.4431C335.434 25.4199 323.268 13.2413 308.26 13.2413C293.253 13.2413 281.087 25.4199 281.087 40.4431C281.087 55.4662 293.253 67.6449 308.26 67.6449Z" fill="#BE6F72"/>
<path d="M322.777 55.8079C326.615 57.9593 331.349 57.7367 335.631 56.7558C338.06 56.299 340.362 55.3265 342.383 53.9038C343.387 53.1857 344.215 52.2486 344.804 51.1633C345.393 50.0781 345.728 48.873 345.784 47.6391C345.784 44.8777 343.973 42.3883 343.75 39.627C343.479 36.1484 345.743 32.9337 345.982 29.4387C346.221 25.9436 344.5 22.7948 342.82 19.7944C339.93 14.6425 336.924 9.42474 332.527 5.4846C328.13 1.54446 322.036 -0.969644 316.272 0.357474C313.44 1.00867 310.813 2.53362 307.923 2.83036C305.354 3.06941 302.817 2.29457 300.257 1.96485C297.696 1.63513 294.822 1.84121 292.986 3.61345C291.981 4.6026 291.339 5.99566 290.161 6.72104C289.363 7.08973 288.537 7.39564 287.691 7.63601C284.718 8.83124 283.36 12.1861 282.306 15.2031L275.241 35.4725C277.604 37.1211 280.453 37.8712 283.039 39.1406C285.624 40.41 288.136 42.4378 288.663 45.2734C289.066 47.4248 288.3 49.8977 289.552 51.6947C290.697 53.3433 293.027 53.6235 295.003 53.3433C296.979 53.063 298.964 52.3788 300.94 52.6838C305.881 53.4339 307.717 56.4673 312.287 52.6838C316.857 48.9003 318.529 53.4174 322.777 55.8079Z" fill="#3F3D56"/>
<path opacity="0.1" d="M192.782 126.516C206.425 126.516 217.485 115.445 217.485 101.787C217.485 88.1298 206.425 77.0583 192.782 77.0583C179.139 77.0583 168.079 88.1298 168.079 101.787C168.079 115.445 179.139 126.516 192.782 126.516Z" fill="black"/>
<path d="M193.737 125.173C207.38 125.173 218.44 114.101 218.44 100.444C218.44 86.7864 207.38 75.7149 193.737 75.7149C180.094 75.7149 169.034 86.7864 169.034 100.444C169.034 114.101 180.094 125.173 193.737 125.173Z" fill="#FBBEBE"/>
<path d="M212.652 76.2669C206.77 71.75 200.162 68.271 193.112 65.9797C188.599 64.5125 183.691 63.5068 179.113 64.8587C172.904 66.6309 164.596 69.2769 160.751 74.4782C158.857 77.0335 156.938 79.663 156.024 82.7212C154.196 88.8704 156.798 95.4236 156.625 101.837C156.419 109.313 152.459 116.138 148.136 122.238C143.813 128.338 142.94 137.075 140.387 144.115C139.514 146.53 139.234 149.885 141.482 151.097C143.459 152.193 145.847 150.825 147.675 149.506L158.667 141.551C159.522 140.848 160.507 140.321 161.566 140.002C163.83 139.474 166.045 140.892 167.939 142.235L190.995 158.556C191.451 157.625 191.697 156.605 191.715 155.568C191.734 154.531 191.525 153.503 191.102 152.556C193.268 153.223 194.841 155.028 196.743 156.314C198.645 157.6 201.535 158.021 202.919 156.224C204.302 154.427 203.256 152.012 201.716 150.561C200.177 149.11 198.151 148.245 196.644 146.753C193.655 143.777 193.35 139.078 191.465 135.32C190.114 132.682 187.932 130.473 186.977 127.662C185.421 123.071 187.455 118.125 189.447 113.706C191.827 108.464 194.52 102.867 199.584 100.13C201.288 99.2071 203.174 98.6631 204.92 97.8223C209.267 95.7368 214.694 90.8158 216.818 86.4058C218.679 82.4904 215.814 78.7069 212.652 76.2669Z" fill="#3F3D56"/>
<path opacity="0.1" d="M175.259 157.988C177.622 159.496 180.29 160.46 182.612 162.035C184.934 163.609 186.968 166 187.034 168.802C187.1 171.481 185.387 173.831 183.74 175.957L163.682 202.31L173.909 205.022C172.262 207.297 171.842 210.199 170.986 212.869C170.129 215.54 168.515 218.318 165.781 219.019C163.311 219.653 160.726 218.351 158.173 218.499C156.287 218.615 154.509 219.505 152.623 219.579C150.194 219.67 147.938 218.392 145.912 217.04C141.4 214.015 136.92 209.679 136.953 204.239C137.06 202.399 137.429 200.584 138.048 198.848C141.004 189.195 144.068 179.312 150.194 171.283C153.488 166.997 157.514 163.378 161.541 159.785C162.456 158.862 163.534 158.116 164.719 157.584C167.354 156.595 170.228 157.814 172.954 158.606C175.679 159.397 179.113 159.513 180.686 157.18" fill="black"/>
<path d="M174.395 156.364C176.759 157.864 179.426 158.837 181.749 160.411C184.071 161.986 186.104 164.376 186.179 167.17C186.253 169.965 184.532 172.207 182.885 174.333L162.818 200.662L173.045 203.373C171.398 205.649 170.978 208.542 170.122 211.221C169.265 213.9 167.651 216.669 164.918 217.37C162.447 218.005 159.862 216.702 157.309 216.851C155.423 216.958 153.645 217.856 151.759 217.922C149.33 218.013 147.074 216.735 145.048 215.383C140.536 212.367 136.056 208.022 136.097 202.59C136.196 200.75 136.562 198.934 137.184 197.199C140.141 187.539 143.204 177.655 149.33 169.635C152.624 165.34 156.659 161.722 160.677 158.095C161.597 157.177 162.673 156.432 163.855 155.894C166.49 154.905 169.364 156.125 172.09 156.924C174.815 157.724 178.249 157.831 179.822 155.498" fill="#F86D70"/>
<g opacity="0.1">
<path opacity="0.1" d="M380.689 67.513C382.624 70.1919 385.63 71.9312 388.71 73.077C394.454 75.213 400.706 75.5804 406.66 74.1321C412.424 72.7308 418.444 69.6809 423.854 72.0878C425.13 72.6566 426.324 73.5221 427.716 73.621C429.077 73.5964 430.397 73.15 431.495 72.3433C434.83 70.2826 437.893 67.2821 439.359 63.7459C439.359 63.9273 439.359 64.1086 439.408 64.2982C439.664 69.9446 435.431 74.8492 430.639 77.8084C429.545 78.6155 428.226 79.0594 426.867 79.0778C425.476 78.9872 424.274 78.1134 422.997 77.5529C417.587 75.1459 411.535 78.1958 405.804 79.5971C399.848 81.0369 393.6 80.6696 387.853 78.5421C384.765 77.388 381.768 75.657 379.833 72.978C377.898 70.2991 377.206 66.5485 378.853 63.6717L378.977 63.4656C379.243 64.9244 379.828 66.3064 380.689 67.513Z" fill="black"/>
<path opacity="0.1" d="M381.785 53.7388C381.851 55.0083 381.085 56.0716 380.352 57.1514C380.25 56.8837 380.17 56.608 380.113 56.3271C379.866 54.8516 380.574 53.4174 381.357 52.1232C381.581 52.6367 381.726 53.1816 381.785 53.7388Z" fill="black"/>
</g>
<path opacity="0.1" d="M284.233 12.5156L277.168 32.7768C279.531 34.4254 282.38 35.1837 284.966 36.4449C287.551 37.7061 290.063 39.7421 290.59 42.5777C290.993 44.7291 290.227 47.202 291.479 49.0072C292.623 50.6558 294.954 50.9278 296.93 50.6558C298.906 50.3838 300.891 49.6914 302.867 49.9963C307.808 50.7465 309.644 53.7799 314.214 50.0376C318.784 46.2952 320.439 50.7382 324.688 53.1287C328.525 55.2883 333.26 55.0658 337.542 54.0766C339.969 53.6223 342.272 52.6526 344.294 51.2328C344.581 50.9975 344.856 50.7471 345.117 50.4827C344.487 51.8336 343.537 53.0105 342.351 53.9118C340.329 55.3344 338.027 56.307 335.598 56.7638C331.317 57.7447 326.541 57.9673 322.745 55.8159C318.496 53.4254 316.75 49.0649 312.271 52.7248C307.791 56.3846 305.848 53.4337 300.924 52.7248C298.947 52.4198 296.971 53.1039 294.987 53.3842C293.002 53.6645 290.68 53.3842 289.536 51.7356C288.284 49.9386 289.05 47.4658 288.646 45.3143C288.119 42.4788 285.608 40.4427 283.022 39.1816C280.437 37.9204 277.588 37.1538 275.224 35.5135L282.322 15.1945C283.146 12.9607 284.052 10.5455 285.698 8.95462C285.128 10.1061 284.638 11.296 284.233 12.5156Z" fill="black"/>
<g opacity="0.1">
<path opacity="0.1" d="M192.938 153.446C194.758 154.27 197.056 154.394 198.208 152.852C199.501 151.204 198.546 148.649 197.006 147.19C195.466 145.731 193.441 144.873 191.934 143.381C188.945 140.414 188.64 135.715 186.754 131.957C185.404 129.311 183.222 127.101 182.267 124.291C180.71 119.708 182.744 114.753 184.737 110.344C187.117 105.101 189.809 99.504 194.873 96.7673C196.578 95.8441 198.464 95.3001 200.209 94.4593C204.557 92.3738 209.983 87.4446 212.108 83.0346C213.895 79.317 211.375 75.7066 208.378 73.2584C209.835 74.2063 211.26 75.2037 212.643 76.2671C215.813 78.74 218.671 82.4905 216.76 86.3894C214.636 90.7994 209.209 95.7205 204.862 97.806C203.116 98.6303 201.23 99.1908 199.526 100.114C194.462 102.851 191.769 108.448 189.389 113.69C187.388 118.108 185.355 123.054 186.919 127.645C187.874 130.456 190.056 132.665 191.407 135.303C193.317 139.062 193.597 143.76 196.586 146.736C198.093 148.228 200.119 149.085 201.658 150.544C203.198 152.003 204.129 154.526 202.861 156.207C201.593 157.889 198.579 157.543 196.685 156.298C195.409 155.433 194.248 154.295 192.938 153.446Z" fill="black"/>
<path opacity="0.1" d="M142.997 146.134L153.99 138.188C154.844 137.483 155.829 136.953 156.888 136.63C159.153 136.111 161.368 137.529 163.262 138.872L186.318 155.193C186.774 154.261 187.02 153.239 187.038 152.201C187.057 151.162 186.847 150.133 186.425 149.184C188.541 149.844 190.081 151.608 191.917 152.844C191.65 152.723 191.375 152.621 191.094 152.539C191.516 153.486 191.725 154.515 191.707 155.552C191.688 156.588 191.442 157.609 190.987 158.54L167.931 142.219C166.037 140.875 163.813 139.458 161.557 139.985C160.498 140.305 159.513 140.832 158.659 141.535L147.666 149.489C145.838 150.808 143.45 152.176 141.474 151.08C140.933 150.748 140.49 150.279 140.187 149.72C139.885 149.162 139.735 148.533 139.753 147.898C140.919 147.482 142.014 146.887 142.997 146.134Z" fill="black"/>
</g>
<path d="M417.636 199.969C417.636 199.969 370.454 203.753 361.067 197.059L404.231 190.399L417.636 199.969Z" fill="#E3E8F4"/>
<path opacity="0.1" d="M417.636 199.969C417.636 199.969 370.454 203.753 361.067 197.059L404.231 190.399L417.636 199.969Z" fill="black"/>
<path d="M417.637 199.969L404.42 191.594C404.42 191.594 364.995 202.937 354.191 198.255L365.184 182.815L404.248 190.44L417.637 199.969Z" fill="#E3E8F4"/>
<path d="M359.009 88.92C357.551 90.7629 356.382 92.8169 355.542 95.0115C355.163 96.1738 354.974 97.3855 354.653 98.5643C353.749 101.5 352.357 104.261 350.535 106.733C346.476 112.643 341.404 118.347 340.383 125.445C339.889 128.948 340.432 132.509 341.124 135.979C341.498 138.267 342.151 140.501 343.067 142.631C344.113 144.89 345.669 146.876 346.863 149.061C347.954 151.205 348.873 153.432 349.613 155.721C351.021 154.311 351.853 152.424 352.981 150.775C354.109 149.127 355.789 147.643 357.774 147.618C360.063 147.618 361.948 149.514 364.213 149.811C364.566 149.882 364.933 149.848 365.267 149.712C366.09 149.324 366.156 148.212 366.09 147.321C365.44 141.098 361.882 134.957 363.562 128.923C365.11 123.343 370.644 119.856 373.55 114.852C375.658 111.217 376.284 106.931 376.844 102.76C377.544 97.7729 378.252 92.7447 377.939 87.7248C377.783 85.1942 375.774 69.2028 372.101 70.8761C370.825 71.4531 369.713 73.9013 368.915 74.9976L365.621 79.6714L359.009 88.92Z" fill="#3F3D56"/>
<path d="M260.452 192.081L233.962 213.669L199.88 207.569L222.829 189.533L260.452 192.081Z" fill="#E3E8F4"/>
<path opacity="0.1" d="M261.407 190.737L234.917 212.325L200.835 206.226L223.784 188.19L261.407 190.737Z" fill="black"/>
<path d="M261.218 189.591L234.728 211.171L200.638 205.08L223.595 187.036L261.218 189.591Z" fill="#E3E8F4"/>
<path opacity="0.1" d="M261.983 187.094L235.485 208.682L201.403 202.582L224.361 184.547L261.983 187.094Z" fill="black"/>
<path d="M261.786 185.948L235.297 207.536L201.215 201.437L224.164 183.401L261.786 185.948Z" fill="#E3E8F4"/>
<path d="M610.238 480.923C610.862 480.618 611.552 480.471 612.246 480.495C612.94 480.518 613.618 480.711 614.221 481.056C614.824 481.401 615.334 481.889 615.706 482.476C616.078 483.063 616.301 483.733 616.356 484.426L617.83 503.558L609.085 505.14L604.474 491.309L610.238 480.923Z" fill="#3F3D56"/>
<path d="M304.291 352.687L170.458 420.675C168.924 421.459 167.636 422.653 166.739 424.126C165.842 425.599 165.371 427.291 165.377 429.016C165.384 430.741 165.869 432.43 166.778 433.896C167.686 435.361 168.983 436.546 170.524 437.317L458.767 582.121C463.895 584.692 469.576 585.962 475.309 585.818C481.043 585.674 486.653 584.122 491.646 581.297L613.053 512.765C614.526 511.924 615.742 510.696 616.569 509.214C617.396 507.732 617.803 506.052 617.746 504.356C617.689 502.659 617.171 501.01 616.246 499.587C615.322 498.164 614.027 497.02 612.502 496.279L312.517 352.596C311.23 351.98 309.82 351.667 308.393 351.683C306.967 351.699 305.564 352.042 304.291 352.687Z" fill="#3F3D56"/>
<path d="M169.561 408.846L165.37 411.962L165.041 426.881C165.014 428.045 165.315 429.192 165.909 430.192C166.503 431.192 167.367 432.004 168.4 432.536L461.567 583.135C462.232 583.479 462.975 583.645 463.723 583.619C464.471 583.592 465.2 583.373 465.839 582.983C466.478 582.593 467.006 582.045 467.373 581.392C467.74 580.739 467.932 580.002 467.932 579.253V557.582L169.561 408.846Z" fill="#3F3D56"/>
<path d="M304.292 335.393L170.459 403.373C168.923 404.154 167.634 405.347 166.735 406.818C165.836 408.29 165.362 409.982 165.366 411.707C165.37 413.432 165.853 415.121 166.759 416.588C167.665 418.055 168.961 419.241 170.501 420.015L458.768 564.82C463.897 567.388 469.577 568.657 475.31 568.513C481.043 568.369 486.654 566.818 491.647 563.995L613.054 495.455C614.527 494.614 615.743 493.386 616.57 491.904C617.397 490.422 617.804 488.742 617.747 487.045C617.69 485.349 617.172 483.7 616.248 482.277C615.323 480.853 614.029 479.71 612.503 478.969L312.518 335.294C311.231 334.679 309.82 334.368 308.393 334.385C306.967 334.402 305.564 334.747 304.292 335.393Z" fill="#E3E8F4"/>
<path d="M331.991 347.733L184.531 422.686L437.975 549.545L590.047 472.275L331.991 347.733Z" fill="#3F3D56"/>
<path d="M530.718 526.481C539.309 526.481 546.273 522.352 546.273 517.257C546.273 512.163 539.309 508.034 530.718 508.034C522.128 508.034 515.164 512.163 515.164 517.257C515.164 522.352 522.128 526.481 530.718 526.481Z" fill="#3F3D56"/>
<path d="M247.03 373.105C247.826 373.105 248.471 372.459 248.471 371.662C248.471 370.865 247.826 370.22 247.03 370.22C246.234 370.22 245.589 370.865 245.589 371.662C245.589 372.459 246.234 373.105 247.03 373.105Z" fill="#3F3D56"/>
<path d="M242.715 384.637C243.67 384.637 244.444 383.862 244.444 382.906C244.444 381.95 243.67 381.175 242.715 381.175C241.76 381.175 240.986 381.95 240.986 382.906C240.986 383.862 241.76 384.637 242.715 384.637Z" fill="#3F3D56"/>
<path d="M249.048 380.02L266.331 371.95" stroke="#3F3D56" stroke-miterlimit="10"/>
<path d="M402.157 417.541L353.366 445.74C346.277 449.837 343.848 458.911 347.941 466.008C352.034 473.105 361.098 475.536 368.188 471.439L416.979 443.24C424.068 439.142 426.497 430.068 422.404 422.971C418.311 415.875 409.246 413.443 402.157 417.541Z" fill="#E9B7BB"/>
<path d="M445.798 439.799L397.007 467.998C389.918 472.095 387.489 481.17 391.582 488.266C395.675 495.363 404.74 497.794 411.829 493.697L460.62 465.498C467.709 461.401 470.138 452.326 466.045 445.23C461.952 438.133 452.888 435.702 445.798 439.799Z" fill="#E9B7BB"/>
<path d="M362.633 391.99L313.841 420.189C306.752 424.286 304.323 433.361 308.416 440.457C312.509 447.554 321.574 449.985 328.663 445.888L377.454 417.689C384.543 413.592 386.972 404.517 382.879 397.421C378.787 390.324 369.722 387.893 362.633 391.99Z" fill="#E9B7BB"/>
</svg>
