<svg width="623" height="562" viewBox="0 0 623 562" fill="none" xmlns="http://www.w3.org/2000/svg">
<path d="M279.859 529.816C348.13 528.74 390.007 464.64 409.189 434.288C419.64 426.23 417.611 425.093 434.942 413.509C456.605 399.028 480.538 413.531 518.648 401.129C556.758 388.727 549.72 330.226 529.748 304.312C509.776 278.397 518.411 265.843 535.554 234.44C552.697 203.036 599.289 196.145 561.55 115.573C523.811 34.9998 447.936 45.7702 406.192 71.791C372.796 92.6077 346.774 94.7121 337.937 93.1623C309.932 72.9464 232.504 38.2983 146.838 61.4327C79.268 79.6802 45.7307 100.744 25.7513 194.814C5.77182 288.885 79.4977 315.42 120.412 324.706C161.326 333.991 157.333 372.471 155.166 426.018C152.998 479.564 194.521 531.16 279.859 529.816Z" fill="#F1D8DA"/>
</svg>
