<svg width="79" height="253" viewBox="0 0 79 253" fill="none" xmlns="http://www.w3.org/2000/svg">
<path d="M-32.8196 311.301C4.68779 295.558 13.6182 250.825 17.4887 229.788C21.4787 223.013 20.1049 222.835 27.1164 212.584C35.8808 199.771 52.3311 202.479 70.6497 187.166C88.9683 171.853 72.0966 141.07 55.3039 131.174C38.5113 121.278 40.4997 112.421 43.0098 91.254C45.5199 70.0873 69.7507 55.9393 31.0068 19.7654C-7.73701 -16.4084 -47.2974 6.38245 -64.6037 30.0318C-78.4488 48.9514 -92.3693 55.8891 -97.5989 56.993C-117.569 52.03 -168.065 50.054 -210.296 81.8534C-243.606 106.936 -257.474 126.023 -247.647 182.467C-237.82 238.911 -191.17 237.223 -166.489 233.278C-141.808 229.333 -135.476 251.494 -124.793 281.581C-114.11 311.667 -79.7039 330.98 -32.8196 311.301Z" fill="#F1F1F1"/>
</svg>
