<svg width="129" height="404" viewBox="0 0 129 404" fill="none" xmlns="http://www.w3.org/2000/svg">
<g filter="url(#filter0_d)">
<path d="M62.2717 231.853C76.6078 266.107 117.433 274.301 136.634 277.853C142.814 281.502 142.978 280.248 152.329 286.658C164.017 294.671 161.529 309.685 175.491 326.421C189.452 343.158 217.568 327.785 226.617 312.465C235.667 297.146 243.75 298.969 263.07 301.28C282.389 303.591 295.281 325.724 328.339 290.39C361.396 255.057 340.629 218.923 319.057 203.103C301.799 190.447 295.479 177.733 294.477 172.958C299.026 154.734 300.877 108.64 271.889 70.06C249.024 39.6297 231.613 26.9519 180.079 35.8696C128.545 44.7873 130.042 87.3733 133.62 109.907C137.198 132.441 116.962 138.2 89.4881 147.923C62.0139 157.647 44.3516 189.037 62.2717 231.853Z" fill="#B8C1FD"/>
</g>
<defs>
<filter id="filter0_d" x="-9.15527e-05" y="0" width="388.75" height="403.012" filterUnits="userSpaceOnUse" color-interpolation-filters="sRGB">
<feFlood flood-opacity="0" result="BackgroundImageFix"/>
<feColorMatrix in="SourceAlpha" type="matrix" values="0 0 0 0 0 0 0 0 0 0 0 0 0 0 0 0 0 0 127 0"/>
<feOffset dy="4"/>
<feGaussianBlur stdDeviation="2"/>
<feColorMatrix type="matrix" values="0 0 0 0 0 0 0 0 0 0 0 0 0 0 0 0 0 0 0.25 0"/>
<feBlend mode="normal" in2="BackgroundImageFix" result="effect1_dropShadow"/>
<feBlend mode="normal" in="SourceGraphic" in2="effect1_dropShadow" result="shape"/>
</filter>
</defs>
</svg>
