<svg width="217" height="209" viewBox="0 0 217 209" fill="none" xmlns="http://www.w3.org/2000/svg">
<path d="M127.347 176.397C146.051 168.547 150.504 146.241 152.434 135.75C154.424 132.372 153.739 132.283 157.235 127.172C161.605 120.782 169.808 122.133 178.943 114.497C188.078 106.86 179.665 91.5105 171.291 86.5756C162.917 81.6408 163.909 77.2243 165.16 66.6694C166.412 56.1144 178.495 49.0594 159.175 31.0211C139.855 12.9828 120.128 24.3476 111.498 36.1405C104.594 45.5749 97.6526 49.0344 95.0448 49.5849C85.0868 47.11 59.9062 46.1247 38.8476 61.9817C22.2375 74.489 15.3218 84.0071 20.2222 112.153C25.1225 140.299 48.3849 139.458 60.6924 137.491C72.9999 135.523 76.1569 146.574 81.4841 161.577C86.8113 176.58 103.968 186.21 127.347 176.397Z" fill="#F1F1F1" fill-opacity="0.7"/>
</svg>
