<svg width="486" height="390" viewBox="0 0 486 390" fill="none" xmlns="http://www.w3.org/2000/svg">
<path d="M466.413 647.606C535.136 618.76 551.499 536.798 558.591 498.252C565.902 485.84 563.385 485.513 576.231 466.731C592.29 443.254 622.431 448.216 655.996 420.158C689.56 392.1 658.647 335.698 627.878 317.566C597.11 299.433 600.753 283.205 605.352 244.422C609.951 205.639 654.349 179.717 583.36 113.437C512.371 47.157 439.886 88.9157 408.176 132.248C382.809 166.913 357.303 179.625 347.721 181.647C311.131 172.554 218.608 168.933 141.23 227.198C80.1982 273.155 54.7874 308.128 72.7932 411.548C90.799 514.968 176.274 511.875 221.497 504.647C266.719 497.419 278.319 538.024 297.894 593.15C317.468 648.276 380.509 683.663 466.413 647.606Z" fill="#F1F1F1"/>
</svg>
